<svg xmlns="http://www.w3.org/2000/svg" xmlns:xlink="http://www.w3.org/1999/xlink" xmlns:inkscape="http://www.inkscape.org/namespaces/inkscape" version="1.1" width="1014" height="799" viewBox="0 0 1014 799">
<defs>
<clipPath id="clip_0">
<path transform="matrix(1,0,0,-1,0,799)" d="M0 0H1014V799H0Z"/>
</clipPath>
</defs>
<g clip-path="url(#clip_0)">
<path transform="matrix(1,0,0,-1,0,799)" d="M0 0H1014V799H0Z" fill="#ffffff"/>
<path transform="matrix(1,0,0,-1,0,799)" d="M0 0H1014V799H0Z" fill="#ffffff"/>
<text xml:space="preserve" transform="matrix(1 0 0 1 2242 -4508)" font-size="21" font-family="Optima"><tspan y="4643" x="-2163.606 -2153.106 -2142.606 -2132.106 -2120.43 -2109.93 -2104.092 -2098.2542 -2086.5782 -2069.0853 -2063.2474 -2051.5714 -2041.0713 -2029.3953 -2018.8953">Scene luminance</tspan></text>
<path transform="matrix(1,0,0,-1,0,799)" d="M23 628.4344H289C291.7614 628.4344 294 626.1958 294 623.4344V557.4344C294 554.673 291.7614 552.4344 289 552.4344H23C20.23858 552.4344 18 554.673 18 557.4344V623.4344C18 626.1958 20.23858 628.4344 23 628.4344ZM23 628.4344" fill="#ffffff"/>
<path transform="matrix(1,0,0,1,2242,-4508)" stroke-width="2" stroke-linecap="round" stroke-linejoin="round" fill="none" stroke="#000000" d="M-2219 4678.566H-1953C-1950.239 4678.566-1948 4680.804-1948 4683.566V4749.566C-1948 4752.327-1950.239 4754.566-1953 4754.566H-2219C-2221.761 4754.566-2224 4752.327-2224 4749.566V4683.566C-2224 4680.804-2221.761 4678.566-2219 4678.566ZM-2219 4678.566"/>
<text xml:space="preserve" transform="matrix(1 0 0 1 2242 -4508)" font-size="21" font-family="Optima" font-weight="bold"><tspan y="4710.041" x="-2200.628 -2184.29 -2173.79 -2165.621 -2154.197 -2138.237 -2127.737 -2119.568 -2109.068 -2102.0753 -2096.2374 -2084.5614 -2077.5684 -2069.3995 -2063.5616 -2051.8856 -2043.7166 -2037.8786 -2027.3786 -2021.5405 -2004.0475 -1993.5475 -1981.8715">Hardware-intrinsic OETF</tspan></text>
<text xml:space="preserve" transform="matrix(1 0 0 1 2242 -4508)" font-size="21" font-family="Optima"><tspan y="4735.566" x="-2177.024 -2171.186 -2165.3482 -2147.8553 -2137.3553 -2126.8553 -2121.0174 -2109.3414 -2098.8414 -2093.0035 -2080.1724 -2069.6724 -2057.9964 -2046.3203 -2035.8203 -2028.8273 -2022.9893 -2011.3132 -2000.8132">(Imaging/Rendering)</tspan></text>
<text xml:space="preserve" transform="matrix(1 0 0 1 2242 -4508)" font-size="21" font-family="Optima"><tspan y="4803.606" x="-2138.626 -2125.795 -2112.733 -2091.733 -2085.895 -2074.219 -2068.381 -2057.881 -2047.3811 -2041.5431">RAW pixels</tspan></text>
<text xml:space="preserve" transform="matrix(1 0 0 1 2242 -4508)" font-size="21" font-family="Optima"><tspan y="4829.131" x="-2177.361">(</tspan></text>
<text xml:space="preserve" transform="matrix(1 0 0 1 2242 -4508)" font-size="21" font-family="AppleSDGothicNeo"><tspan y="4829.131" x="-2171.523">&#x221d;</tspan></text>
<text xml:space="preserve" transform="matrix(1 0 0 1 2242 -4508)" font-size="21" font-family="Optima"><tspan y="4829.131" x="-2153.358 -2145.189 -2134.689 -2124.189 -2112.513 -2102.013 -2096.175 -2090.3372 -2078.6612 -2061.1683 -2055.3304 -2043.6543 -2033.1543 -2021.4783 -2010.9783 -2000.4783">scene luminance)</tspan></text>
<path transform="matrix(1,0,0,-1,0,799)" d="M23 443H289C291.7614 443 294 440.7614 294 438V372C294 369.2386 291.7614 367 289 367H23C20.23858 367 18 369.2386 18 372V438C18 440.7614 20.23858 443 23 443ZM23 443" fill="#ffffff"/>
<path transform="matrix(1,0,0,1,2242,-4508)" stroke-width="2" stroke-linecap="round" stroke-linejoin="round" fill="none" stroke="#000000" d="M-2219 4864H-1953C-1950.239 4864-1948 4866.239-1948 4869V4935C-1948 4937.761-1950.239 4940-1953 4940H-2219C-2221.761 4940-2224 4937.761-2224 4935V4869C-2224 4866.239-2221.761 4864-2219 4864ZM-2219 4864"/>
<text xml:space="preserve" transform="matrix(1 0 0 1 2242 -4508)" font-size="21" font-family="Optima" font-weight="bold"><tspan y="4895.475" x="-2142.543 -2128.536 -2118.036 -2104.0289 -2098.191 -2085.4649 -2079.627 -2062.134 -2051.634 -2039.958">CSC + OETF</tspan></text>
<text xml:space="preserve" transform="matrix(1 0 0 1 2242 -4508)" font-size="21" font-family="Optima"><tspan y="4921" x="-2184.039 -2178.2012 -2167.7012 -2161.8634 -2151.3634 -2145.5255 -2139.6876 -2133.8497 -2125.6807 -2112.8497 -2096.5118 -2083.6807 -2077.8428 -2067.3428 -2055.6668 -2045.1668 -2033.4907 -2021.8147 -2015.9767 -2004.3007 -1993.8007">(e.g., sRGB encoding)</tspan></text>
<text xml:space="preserve" transform="matrix(1 0 0 1 2242 -4508)" font-size="21" font-family="Optima"><tspan y="4989.738" x="-2204.461 -2198.623 -2181.1302 -2170.6302 -2160.1302 -2149.6302 -2143.7923 -2132.1163 -2126.2784 -2115.7784 -2105.2784 -2099.4405 -2091.2716 -2085.4337 -2079.5958 -2067.9197 -2062.0819 -2056.244 -2045.7439 -2039.9059 -2029.4059 -2023.5679 -2017.7299 -2011.8919 -2006.0538 -1994.3778 -1983.8778">Image pixels in, e.g., JPEG</tspan></text>
<text xml:space="preserve" transform="matrix(1 0 0 1 2242 -4508)" font-size="21" font-family="Optima"><tspan y="5015.262" x="-2158.114">(</tspan></text>
<text xml:space="preserve" transform="matrix(1 0 0 1 2242 -4508)" font-size="21" font-family="AppleSDGothicNeo"><tspan y="5015.262" x="-2152.276">&#x221d;</tspan></text>
<text xml:space="preserve" transform="matrix(1 0 0 1 2242 -4508)" font-size="21" font-family="Optima"><tspan y="5015.262" x="-2134.111 -2128.2733 -2116.5972 -2110.7593 -2099.0833 -2092.0904 -2086.2525 -2075.7525 -2064.0765 -2058.2386 -2046.5625 -2036.0625 -2027.8936 -2019.7246">to brightness)</tspan></text>
<path transform="matrix(1,0,0,-1,0,799)" d="M221 77H487C489.7614 77 492 74.76142 492 72V6C492 3.238576 489.7614 1 487 1H221C218.2386 1 216 3.238576 216 6V72C216 74.76142 218.2386 77 221 77ZM221 77" fill="#ffffff"/>
<path transform="matrix(1,0,0,1,2242,-4508)" stroke-width="2" stroke-linecap="round" stroke-linejoin="round" fill="none" stroke="#000000" d="M-2021 5230H-1755C-1752.239 5230-1750 5232.239-1750 5235V5301C-1750 5303.761-1752.239 5306-1755 5306H-2021C-2023.761 5306-2026 5303.761-2026 5301V5235C-2026 5232.239-2023.761 5230-2021 5230ZM-2021 5230"/>
<text xml:space="preserve" transform="matrix(1 0 0 1 2242 -4508)" font-size="21" font-family="Optima" font-weight="bold"><tspan y="5261.475" x="-1909.588 -1899.088 -1888.588 -1876.912">EETF</tspan></text>
<text xml:space="preserve" transform="matrix(1 0 0 1 2242 -4508)" font-size="21" font-family="Optima"><tspan y="5287" x="-2015.344 -2009.506 -1999.006 -1993.168 -1982.668 -1976.83 -1970.992 -1966.7079 -1955.0319 -1936.3629 -1919.3739 -1913.5359 -1907.6979 -1897.1979 -1886.6979 -1869.2048 -1857.5288 -1851.6908 -1845.8528 -1828.3598 -1817.8598 -1806.1837 -1794.5077 -1788.6697 -1776.9937 -1766.4937">(e.g., TMO, gamut mapping)</tspan></text>
<path transform="matrix(1,0,0,-1,0,799)" d="M23 256.172H289C291.7614 256.172 294 253.9334 294 251.172V185.172C294 182.4105 291.7614 180.172 289 180.172H23C20.23858 180.172 18 182.4105 18 185.172V251.172C18 253.9334 20.23858 256.172 23 256.172ZM23 256.172" fill="#ffffff"/>
<path transform="matrix(1,0,0,1,2242,-4508)" stroke-width="2" stroke-linecap="round" stroke-linejoin="round" fill="none" stroke="#000000" d="M-2219 5050.828H-1953C-1950.239 5050.828-1948 5053.067-1948 5055.828V5121.828C-1948 5124.589-1950.239 5126.828-1953 5126.828H-2219C-2221.761 5126.828-2224 5124.589-2224 5121.828V5055.828C-2224 5053.067-2221.761 5050.828-2219 5050.828ZM-2219 5050.828"/>
<text xml:space="preserve" transform="matrix(1 0 0 1 2242 -4508)" font-size="21" font-family="Optima" font-weight="bold"><tspan y="5082.803" x="-2117.307 -2099.814 -2089.314 -2077.638">OETF</tspan></text>
<text xml:space="preserve" transform="matrix(1 0 0 1 2242 -4508)" font-size="14" font-family="Optima" font-weight="bold"><tspan y="5075.803" x="-2067.139 -2062.4769">-1</tspan></text>
<text xml:space="preserve" transform="matrix(1 0 0 1 2242 -4508)" font-size="21" font-family="Optima"><tspan y="5108.328" x="-2205.606 -2199.768 -2186.937 -2176.437 -2170.599 -2158.923 -2151.9302 -2141.4302 -2135.5924 -2129.7545 -2112.2615 -2101.7615 -2091.2615 -2080.7615 -2074.9237 -2063.2476 -2056.2547 -2044.5786 -2034.0786 -2023.5786 -2015.4097 -2007.2407 -2001.4027 -1989.7267 -1979.2267 -1972.2337">(Before image processing!)</tspan></text>
<text xml:space="preserve" transform="matrix(1 0 0 1 2242 -4508)" font-size="21" font-family="Optima"><tspan y="5176" x="-2156.613 -2140.2752 -2129.7752 -2119.2752 -2107.599 -2095.923 -2085.423 -2073.747 -2067.9093 -2056.2332 -2050.3953 -2039.8953 -2029.3953 -2023.5573">Decoded pixels</tspan></text>
<text xml:space="preserve" transform="matrix(1 0 0 1 2242 -4508)" font-size="21" font-family="Optima"><tspan y="5201.525" x="-2189.037">(</tspan></text>
<text xml:space="preserve" transform="matrix(1 0 0 1 2242 -4508)" font-size="21" font-family="AppleSDGothicNeo"><tspan y="5201.525" x="-2183.198">&#x221d;</tspan></text>
<text xml:space="preserve" transform="matrix(1 0 0 1 2242 -4508)" font-size="21" font-family="Optima"><tspan y="5201.525" x="-2165.034 -2159.196 -2147.52 -2141.6822 -2133.5133 -2123.0133 -2112.5133 -2100.8372 -2090.3372 -2084.4993 -2078.6614 -2066.9854 -2049.4925 -2043.6544 -2031.9784 -2021.4784 -2009.8024 -1999.3024 -1988.8024">to scene luminance)</tspan></text>
<text xml:space="preserve" transform="matrix(1 0 0 1 2242 -4508)" font-size="21" font-family="Optima"><tspan y="5176" x="-1781.109 -1769.433 -1762.44 -1750.7639 -1740.2639 -1729.7639 -1721.595 -1713.426 -1702.926 -1691.25 -1685.412 -1673.736 -1667.898 -1657.398 -1646.898 -1641.0599">Processed pixels</tspan></text>
<text xml:space="preserve" transform="matrix(1 0 0 1 2242 -4508)" font-size="21" font-family="Optima"><tspan y="5201.525" x="-1824.054">(</tspan></text>
<text xml:space="preserve" transform="matrix(1 0 0 1 2242 -4508)" font-size="21" font-family="AppleSDGothicNeo"><tspan y="5201.525" x="-1818.216">&#x221d;</tspan></text>
<text xml:space="preserve" transform="matrix(1 0 0 1 2242 -4508)" font-size="21" font-family="Optima"><tspan y="5201.525" x="-1800.051 -1794.213 -1782.537 -1776.699 -1770.861 -1759.1849 -1753.3469 -1742.8469 -1731.1709 -1719.4949 -1708.9949 -1697.3189 -1691.4808 -1685.6428 -1673.9668 -1656.4738 -1650.6358 -1638.9597 -1628.4597 -1616.7837 -1606.2837 -1595.7837">to intended luminance)</tspan></text>
<path transform="matrix(1,0,0,-1,0,799)" d="M402 256.172H668C670.7614 256.172 673 253.9334 673 251.172V185.172C673 182.4105 670.7614 180.172 668 180.172H402C399.2386 180.172 397 182.4105 397 185.172V251.172C397 253.9334 399.2386 256.172 402 256.172ZM402 256.172" fill="#ffffff"/>
<path transform="matrix(1,0,0,1,2242,-4508)" stroke-width="2" stroke-linecap="round" stroke-linejoin="round" fill="none" stroke="#000000" d="M-1840 5050.828H-1574C-1571.239 5050.828-1569 5053.067-1569 5055.828V5121.828C-1569 5124.589-1571.239 5126.828-1574 5126.828H-1840C-1842.761 5126.828-1845 5124.589-1845 5121.828V5055.828C-1845 5053.067-1842.761 5050.828-1840 5050.828ZM-1840 5050.828"/>
<text xml:space="preserve" transform="matrix(1 0 0 1 2242 -4508)" font-size="21" font-family="Optima" font-weight="bold"><tspan y="5082.803" x="-1769.377 -1755.37 -1744.87 -1730.863 -1725.025 -1712.2991 -1706.461 -1695.961 -1679.245 -1667.569">CSC + EOTF</tspan></text>
<text xml:space="preserve" transform="matrix(1 0 0 1 2242 -4508)" font-size="14" font-family="Optima" font-weight="bold"><tspan y="5075.803" x="-1657.069 -1652.407">-1</tspan></text>
<text xml:space="preserve" transform="matrix(1 0 0 1 2242 -4508)" font-size="21" font-family="Optima"><tspan y="5108.328" x="-1828.664 -1822.8259 -1812.3259 -1806.4879 -1795.9879 -1790.1499 -1784.3119 -1778.4739 -1762.1359 -1756.2979 -1748.1289 -1736.4529 -1730.6149 -1720.7449 -1710.2449 -1704.4069 -1692.7308 -1681.0548 -1675.2168 -1664.7168 -1653.0408 -1642.5408 -1630.8648 -1619.1887 -1613.3507 -1601.6747 -1591.1747">(e.g., Display P3 encoding)</tspan></text>
<text xml:space="preserve" transform="matrix(1 0 0 1 2242 -4508)" font-size="21" font-family="Optima"><tspan y="4989.738" x="-1813.795 -1802.119 -1796.281 -1785.781 -1775.281 -1769.443 -1761.274 -1755.436 -1747.2671 -1736.7671 -1725.0911 -1719.253 -1713.415 -1702.915 -1697.077 -1686.577 -1680.739 -1662.0701 -1656.232 -1644.556 -1638.718 -1632.88 -1616.542 -1606.042">Pixels sent via MIPI DSI</tspan></text>
<text xml:space="preserve" transform="matrix(1 0 0 1 2242 -4508)" font-size="21" font-family="Optima"><tspan y="5015.262" x="-1821.723">(</tspan></text>
<text xml:space="preserve" transform="matrix(1 0 0 1 2242 -4508)" font-size="21" font-family="AppleSDGothicNeo"><tspan y="5015.262" x="-1815.885">&#x221d;</tspan></text>
<text xml:space="preserve" transform="matrix(1 0 0 1 2242 -4508)" font-size="21" font-family="Optima"><tspan y="5015.262" x="-1797.72 -1791.882 -1780.2059 -1774.3679 -1768.5299 -1756.8539 -1751.0159 -1740.5159 -1728.8399 -1717.1638 -1706.6638 -1694.9878 -1689.1498 -1677.4738 -1670.4807 -1664.6427 -1654.1427 -1642.4667 -1636.6287 -1624.9526 -1614.4526 -1606.2837 -1598.1148">to intended brightness)</tspan></text>
<path transform="matrix(1,0,0,-1,0,799)" d="M742 344H1008C1010.761 344 1013 341.7614 1013 339V273C1013 270.2386 1010.761 268 1008 268H742C739.2386 268 737 270.2386 737 273V339C737 341.7614 739.2386 344 742 344ZM742 344" fill="#ffffff"/>
<path transform="matrix(1,0,0,1,2242,-4508)" stroke-width="2" stroke-linecap="round" stroke-linejoin="round" fill="none" stroke="#000000" d="M-1500 4963H-1234C-1231.239 4963-1229 4965.239-1229 4968V5034C-1229 5036.761-1231.239 5039-1234 5039H-1500C-1502.761 5039-1505 5036.761-1505 5034V4968C-1505 4965.239-1502.761 4963-1500 4963ZM-1500 4963"/>
<text xml:space="preserve" transform="matrix(1 0 0 1 2242 -4508)" font-size="21" font-family="Optima" font-weight="bold"><tspan y="5007.238" x="-1391.696 -1381.196 -1364.48 -1352.804">EOTF</tspan></text>
<text xml:space="preserve" transform="matrix(1 0 0 1 2242 -4508)" font-size="21" font-family="AppleSDGothicNeo"><tspan y="4907.738" x="-1478.216">&#x221d;</tspan></text>
<text xml:space="preserve" transform="matrix(1 0 0 1 2242 -4508)" font-size="21" font-family="Optima"><tspan y="4907.738" x="-1460.051 -1454.213 -1442.537 -1436.699 -1430.861 -1419.1849 -1413.3469 -1402.8469 -1391.1709 -1379.4949 -1368.9949 -1357.3189 -1351.4808 -1345.6428 -1333.9668 -1316.4738 -1310.6358 -1298.9597 -1288.4597 -1276.7837 -1266.2837">to intended luminance</tspan></text>
<path transform="matrix(1,0,0,-1,0,799)" d="M742 543H1008C1010.761 543 1013 540.7614 1013 538V472C1013 469.2386 1010.761 467 1008 467H742C739.2386 467 737 469.2386 737 472V538C737 540.7614 739.2386 543 742 543ZM742 543" fill="#ffffff"/>
<path transform="matrix(1,0,0,1,2242,-4508)" stroke-width="2" stroke-linecap="round" stroke-linejoin="round" fill="none" stroke="#000000" d="M-1500 4764H-1234C-1231.239 4764-1229 4766.239-1229 4769V4835C-1229 4837.761-1231.239 4840-1234 4840H-1500C-1502.761 4840-1505 4837.761-1505 4835V4769C-1505 4766.239-1502.761 4764-1500 4764ZM-1500 4764"/>
<text xml:space="preserve" transform="matrix(1 0 0 1 2242 -4508)" font-size="21" font-family="Optima" font-weight="bold"><tspan y="4794.975" x="-1476.914 -1462.907 -1452.407 -1438.4 -1432.562 -1419.836 -1413.998 -1407.005 -1390.667 -1384.829 -1376.66 -1364.984 -1359.146 -1349.276 -1338.776 -1331.783 -1325.945 -1314.2689 -1307.2759 -1299.1069 -1293.2689 -1281.5929 -1273.424 -1267.5859 -1257.0859">CSC + (Display-intrinsic </tspan></text>
<text xml:space="preserve" transform="matrix(1 0 0 1 2242 -4508)" font-size="21" font-family="Optima" font-weight="bold"><tspan y="4821.5" x="-1401.416 -1390.916 -1374.2 -1362.5239 -1352.0239">EOTF)</tspan></text>
<text xml:space="preserve" transform="matrix(1 0 0 1 2242 -4508)" font-size="14" font-family="Optima" font-weight="bold"><tspan y="4814.5" x="-1345.031 -1340.369">-1</tspan></text>
<text xml:space="preserve" transform="matrix(1 0 0 1 2242 -4508)" font-size="21" font-family="Optima"><tspan y="4816.369" x="-1758.639 -1743.456 -1730.0791 -1716.0722 -1710.2341 -1704.3961 -1692.7201 -1681.0441 -1669.368 -1663.53">DAC inputs</tspan></text>
<path transform="matrix(1,0,0,-1,0,799)" d="M402 628.4344H668C670.7614 628.4344 673 626.1958 673 623.4344V557.4344C673 554.673 670.7614 552.4344 668 552.4344H402C399.2386 552.4344 397 554.673 397 557.4344V623.4344C397 626.1958 399.2386 628.4344 402 628.4344ZM402 628.4344" fill="#ffffff"/>
<path transform="matrix(1,0,0,1,2242,-4508)" stroke-width="2" stroke-linecap="round" stroke-linejoin="round" fill="none" stroke="#000000" d="M-1840 4678.566H-1574C-1571.239 4678.566-1569 4680.804-1569 4683.566V4749.566C-1569 4752.327-1571.239 4754.566-1574 4754.566H-1840C-1842.761 4754.566-1845 4752.327-1845 4749.566V4683.566C-1845 4680.804-1842.761 4678.566-1840 4678.566ZM-1840 4678.566"/>
<text xml:space="preserve" transform="matrix(1 0 0 1 2242 -4508)" font-size="21" font-family="Optima" font-weight="bold"><tspan y="4710.041" x="-1821.24 -1804.902 -1794.402 -1786.233 -1774.809 -1758.849 -1748.349 -1740.18 -1729.68 -1722.687 -1716.849 -1705.173 -1698.1799 -1690.011 -1684.173 -1672.497 -1664.328 -1658.49 -1647.99 -1642.152 -1631.652 -1614.9359 -1603.2599">Hardware-intrinsic EOTF</tspan></text>
<text xml:space="preserve" transform="matrix(1 0 0 1 2242 -4508)" font-size="21" font-family="Optima"><tspan y="4735.566" x="-1781.959 -1776.121 -1759.783 -1752.7899 -1747.33 -1736.83 -1730.992 -1719.3159 -1708.8159 -1702.9779 -1692.4779 -1686.6399 -1679.8988 -1669.3988 -1657.7228 -1651.8848 -1646.0468 -1637.8778">(Driving circuits)</tspan></text>
<text xml:space="preserve" transform="matrix(1 0 0 1 2242 -4508)" font-size="21" font-family="Optima"><tspan y="4643" x="-1791.882 -1775.544 -1769.7059 -1761.537 -1749.861 -1744.023 -1734.153 -1723.653 -1717.815 -1711.9769 -1700.3009 -1682.8079 -1676.9699 -1665.2938 -1654.7938 -1643.1178 -1632.6178">Display luminance</tspan></text>
<path transform="matrix(1,0,0,-1,0,799)" d="M402 443H668C670.7614 443 673 440.7614 673 438V372C673 369.2386 670.7614 367 668 367H402C399.2386 367 397 369.2386 397 372V438C397 440.7614 399.2386 443 402 443ZM402 443" fill="#ffffff"/>
<path transform="matrix(1,0,0,1,2242,-4508)" stroke-width="2" stroke-linecap="round" stroke-linejoin="round" fill="none" stroke="#000000" d="M-1840 4864H-1574C-1571.239 4864-1569 4866.239-1569 4869V4935C-1569 4937.761-1571.239 4940-1574 4940H-1840C-1842.761 4940-1845 4937.761-1845 4935V4869C-1845 4866.239-1842.761 4864-1840 4864ZM-1840 4864"/>
<text xml:space="preserve" transform="matrix(1 0 0 1 2242 -4508)" font-size="21" font-family="Optima" font-weight="bold"><tspan y="4882.713" x="-1726.257 -1715.757 -1699.419">LUT</tspan></text>
<text xml:space="preserve" transform="matrix(1 0 0 1 2242 -4508)" font-size="21" font-family="Optima"><tspan y="4908.238" x="-1826.532 -1820.694 -1806.687 -1796.187 -1790.349 -1784.511 -1772.835 -1766.0939 -1755.5939 -1749.7559 -1743.9179 -1732.2418 -1721.7418 -1715.9038 -1700.7208 -1687.3439 -1673.3369 -1667.4989 -1657.5029 -1647.0029 -1641.1649 -1629.4889 -1618.9889 -1610.82 -1604.9819 -1599.1439 -1587.4679">(Calibrating DAC values to </tspan></text>
<text xml:space="preserve" transform="matrix(1 0 0 1 2242 -4508)" font-size="21" font-family="Optima"><tspan y="4933.762" x="-1837.987 -1827.487 -1817.3651 -1805.6891 -1799.8511 -1789.3511 -1779.103 -1768.603 -1762.765 -1756.927 -1745.251 -1739.413 -1728.913 -1717.2369 -1705.5609 -1695.0609 -1683.3849 -1677.5469 -1671.7089 -1660.0328 -1642.5398 -1636.7018 -1625.0258 -1614.5258 -1602.8497 -1592.3497 -1581.8497">achieve intended luminance)</tspan></text>
<path transform="matrix(1,0,0,1,2242,-4508)" stroke-width="1" stroke-linecap="round" stroke-linejoin="round" fill="none" stroke="#000000" d="M-2086 5213.05V5268H-2036.9"/>
<path transform="matrix(1,0,0,-1,0,799)" d="M213.1 39 205.1 42V36ZM213.1 39"/>
<path transform="matrix(1,0,0,1,2242,-4508)" stroke-width="1" stroke-linecap="butt" stroke-miterlimit="10" stroke-linejoin="miter" fill="none" stroke="#000000" d="M-2028.9 5268-2036.9 5265V5271ZM-2028.9 5268"/>
<path transform="matrix(1,0,0,1,2242,-4508)" stroke-width="1" stroke-linecap="round" stroke-linejoin="round" fill="none" stroke="#000000" d="M-1749 5268H-1707V5222.95"/>
<path transform="matrix(1,0,0,-1,0,799)" d="M535 92.05026 532 84.05026H538ZM535 92.05026"/>
<path transform="matrix(1,0,0,1,2242,-4508)" stroke-width="1" stroke-linecap="butt" stroke-miterlimit="10" stroke-linejoin="miter" fill="none" stroke="#000000" d="M-1707 5214.95-1710 5222.95H-1704ZM-1707 5214.95"/>
<path transform="matrix(1,0,0,-1,0,799)" d="M216 794H482C484.7614 794 487 791.7614 487 789V723C487 720.2386 484.7614 718 482 718H216C213.2386 718 211 720.2386 211 723V789C211 791.7614 213.2386 794 216 794ZM216 794" fill="#ffffff"/>
<path transform="matrix(1,0,0,1,2242,-4508)" stroke-width="2" stroke-linecap="round" stroke-linejoin="round" fill="none" stroke="#000000" d="M-2026 4513H-1760C-1757.239 4513-1755 4515.239-1755 4518V4584C-1755 4586.761-1757.239 4589-1760 4589H-2026C-2028.761 4589-2031 4586.761-2031 4584V4518C-2031 4515.239-2028.761 4513-2026 4513ZM-2026 4513"/>
<text xml:space="preserve" transform="matrix(1 0 0 1 2242 -4508)" font-size="21" font-family="Optima" font-weight="bold"><tspan y="4557.238" x="-1921.193 -1903.7 -1886.9839 -1875.3079">OOTF</tspan></text>
<path transform="matrix(1,0,0,1,2242,-4508)" stroke-width="1" stroke-linecap="round" stroke-linejoin="round" fill="none" stroke="#000000" d="M-1754 4551H-1707V4609.1"/>
<path transform="matrix(1,0,0,-1,0,799)" d="M535 689.9 538 697.9H532ZM535 689.9"/>
<path transform="matrix(1,0,0,1,2242,-4508)" stroke-width="1" stroke-linecap="butt" stroke-miterlimit="10" stroke-linejoin="miter" fill="none" stroke="#000000" d="M-1707 4617.1-1704 4609.1H-1710ZM-1707 4617.1"/>
<path transform="matrix(1,0,0,1,2242,-4508)" stroke-width="1" stroke-linecap="round" stroke-linejoin="round" fill="none" stroke="#000000" d="M-2086 4619V4551H-2041.9"/>
<path transform="matrix(1,0,0,-1,0,799)" d="M208.1 756 200.1 759V753ZM208.1 756"/>
<path transform="matrix(1,0,0,1,2242,-4508)" stroke-width="1" stroke-linecap="butt" stroke-miterlimit="10" stroke-linejoin="miter" fill="none" stroke="#000000" d="M-2033.9 4551-2041.9 4548V4554ZM-2033.9 4551"/>
<path transform="matrix(1,0,0,1,2242,-4508)" stroke-width="1" stroke-linecap="round" stroke-linejoin="round" fill="none" stroke="#000000" d="M-1367 4883.738V4850.9"/>
<path transform="matrix(1,0,0,-1,0,799)" d="M875 464.1 872 456.1H878ZM875 464.1"/>
<path transform="matrix(1,0,0,1,2242,-4508)" stroke-width="1" stroke-linecap="butt" stroke-miterlimit="10" stroke-linejoin="miter" fill="none" stroke="#000000" d="M-1367 4842.9-1370 4850.9H-1364ZM-1367 4842.9"/>
<path transform="matrix(1,0,0,1,2242,-4508)" stroke-width="1" stroke-linecap="round" stroke-linejoin="round" fill="none" stroke="#000000" d="M-1367 4962V4929.162"/>
<path transform="matrix(1,0,0,-1,0,799)" d="M875 385.8376 872 377.8376H878ZM875 385.8376"/>
<path transform="matrix(1,0,0,1,2242,-4508)" stroke-width="1" stroke-linecap="butt" stroke-miterlimit="10" stroke-linejoin="miter" fill="none" stroke="#000000" d="M-1367 4921.162-1370 4929.162H-1364ZM-1367 4921.162"/>
<path transform="matrix(1,0,0,1,2242,-4508)" stroke-width="1" stroke-linecap="round" stroke-linejoin="round" fill="none" stroke="#000000" d="M-1571.477 4864.682-1502.523 4764.682"/>
<path transform="matrix(1,0,0,1,2242,-4508)" stroke-width="1" stroke-linecap="round" stroke-linejoin="round" fill="none" stroke="#000000" d="M-1571.477 4939.318-1502.523 5038.318"/>
<path transform="matrix(1,0,0,1,2242,-4508)" stroke-width="1" stroke-linecap="round" stroke-linejoin="round" fill="none" stroke="#000000" d="M-2086 4755.566V4769.706"/>
<path transform="matrix(1,0,0,-1,0,799)" d="M156 529.2937 159 537.2937H153ZM156 529.2937"/>
<path transform="matrix(1,0,0,1,2242,-4508)" stroke-width="1" stroke-linecap="butt" stroke-miterlimit="10" stroke-linejoin="miter" fill="none" stroke="#000000" d="M-2086 4777.706-2083 4769.706H-2089ZM-2086 4777.706"/>
<path transform="matrix(1,0,0,1,2242,-4508)" stroke-width="1" stroke-linecap="round" stroke-linejoin="round" fill="none" stroke="#000000" d="M-2086 4840.656V4853.1"/>
<path transform="matrix(1,0,0,-1,0,799)" d="M156 445.9 159 453.9H153ZM156 445.9"/>
<path transform="matrix(1,0,0,1,2242,-4508)" stroke-width="1" stroke-linecap="butt" stroke-miterlimit="10" stroke-linejoin="miter" fill="none" stroke="#000000" d="M-2086 4861.1-2083 4853.1H-2089ZM-2086 4861.1"/>
<path transform="matrix(1,0,0,1,2242,-4508)" stroke-width="1" stroke-linecap="round" stroke-linejoin="round" fill="none" stroke="#000000" d="M-2086 4941V4955.838"/>
<path transform="matrix(1,0,0,-1,0,799)" d="M156 343.1624 159 351.1624H153ZM156 343.1624"/>
<path transform="matrix(1,0,0,1,2242,-4508)" stroke-width="1" stroke-linecap="butt" stroke-miterlimit="10" stroke-linejoin="miter" fill="none" stroke="#000000" d="M-2086 4963.838-2083 4955.838H-2089ZM-2086 4963.838"/>
<path transform="matrix(1,0,0,1,2242,-4508)" stroke-width="1" stroke-linecap="round" stroke-linejoin="round" fill="none" stroke="#000000" d="M-2086 5026.787V5039.928"/>
<path transform="matrix(1,0,0,-1,0,799)" d="M156 259.072 159 267.072H153ZM156 259.072"/>
<path transform="matrix(1,0,0,1,2242,-4508)" stroke-width="1" stroke-linecap="butt" stroke-miterlimit="10" stroke-linejoin="miter" fill="none" stroke="#000000" d="M-2086 5047.928-2083 5039.928H-2089ZM-2086 5047.928"/>
<path transform="matrix(1,0,0,1,2242,-4508)" stroke-width="1" stroke-linecap="round" stroke-linejoin="round" fill="none" stroke="#000000" d="M-2086 5127.828V5142.1"/>
<path transform="matrix(1,0,0,-1,0,799)" d="M156 156.9 159 164.9H153ZM156 156.9"/>
<path transform="matrix(1,0,0,1,2242,-4508)" stroke-width="1" stroke-linecap="butt" stroke-miterlimit="10" stroke-linejoin="miter" fill="none" stroke="#000000" d="M-2086 5150.1-2083 5142.1H-2089ZM-2086 5150.1"/>
<path transform="matrix(1,0,0,1,2242,-4508)" stroke-width="1" stroke-linecap="round" stroke-linejoin="round" fill="none" stroke="#000000" d="M-1707 5152V5137.728"/>
<path transform="matrix(1,0,0,-1,0,799)" d="M535 177.272 532 169.272H538ZM535 177.272"/>
<path transform="matrix(1,0,0,1,2242,-4508)" stroke-width="1" stroke-linecap="butt" stroke-miterlimit="10" stroke-linejoin="miter" fill="none" stroke="#000000" d="M-1707 5129.728-1710 5137.728H-1704ZM-1707 5129.728"/>
<path transform="matrix(1,0,0,1,2242,-4508)" stroke-width="1" stroke-linecap="round" stroke-linejoin="round" fill="none" stroke="#000000" d="M-1707 4965.738V4949.9"/>
<path transform="matrix(1,0,0,-1,0,799)" d="M535 365.1 532 357.1H538ZM535 365.1"/>
<path transform="matrix(1,0,0,1,2242,-4508)" stroke-width="1" stroke-linecap="butt" stroke-miterlimit="10" stroke-linejoin="miter" fill="none" stroke="#000000" d="M-1707 4941.9-1710 4949.9H-1704ZM-1707 4941.9"/>
<path transform="matrix(1,0,0,1,2242,-4508)" stroke-width="1" stroke-linecap="round" stroke-linejoin="round" fill="none" stroke="#000000" d="M-1707 5049.828V5036.687"/>
<path transform="matrix(1,0,0,-1,0,799)" d="M535 278.3127 532 270.3127H538ZM535 278.3127"/>
<path transform="matrix(1,0,0,1,2242,-4508)" stroke-width="1" stroke-linecap="butt" stroke-miterlimit="10" stroke-linejoin="miter" fill="none" stroke="#000000" d="M-1707 5028.687-1710 5036.687H-1704ZM-1707 5028.687"/>
<path transform="matrix(1,0,0,1,2242,-4508)" stroke-width="1" stroke-linecap="round" stroke-linejoin="round" fill="none" stroke="#000000" d="M-1707 4864V4837.794"/>
<path transform="matrix(1,0,0,-1,0,799)" d="M535 477.2063 532 469.2063H538ZM535 477.2063"/>
<path transform="matrix(1,0,0,1,2242,-4508)" stroke-width="1" stroke-linecap="butt" stroke-miterlimit="10" stroke-linejoin="miter" fill="none" stroke="#000000" d="M-1707 4829.794-1710 4837.794H-1704ZM-1707 4829.794"/>
<path transform="matrix(1,0,0,1,2242,-4508)" stroke-width="1" stroke-linecap="round" stroke-linejoin="round" fill="none" stroke="#000000" d="M-1707 4792.369V4765.466"/>
<path transform="matrix(1,0,0,-1,0,799)" d="M535 549.5344 532 541.5344H538ZM535 549.5344"/>
<path transform="matrix(1,0,0,1,2242,-4508)" stroke-width="1" stroke-linecap="butt" stroke-miterlimit="10" stroke-linejoin="miter" fill="none" stroke="#000000" d="M-1707 4757.466-1710 4765.466H-1704ZM-1707 4757.466"/>
<path transform="matrix(1,0,0,1,2242,-4508)" stroke-width="1" stroke-linecap="round" stroke-linejoin="round" fill="none" stroke="#000000" d="M-1707 4677.566V4664.425"/>
<path transform="matrix(1,0,0,-1,0,799)" d="M535 650.5751 532 642.5751H538ZM535 650.5751"/>
<path transform="matrix(1,0,0,1,2242,-4508)" stroke-width="1" stroke-linecap="butt" stroke-miterlimit="10" stroke-linejoin="miter" fill="none" stroke="#000000" d="M-1707 4656.425-1710 4664.425H-1704ZM-1707 4656.425"/>
<path transform="matrix(1,0,0,1,2242,-4508)" stroke-width="1" stroke-linecap="round" stroke-linejoin="round" fill="none" stroke="#000000" d="M-2086 4654.525V4667.666"/>
<path transform="matrix(1,0,0,-1,0,799)" d="M156 631.3344 159 639.3344H153ZM156 631.3344"/>
<path transform="matrix(1,0,0,1,2242,-4508)" stroke-width="1" stroke-linecap="butt" stroke-miterlimit="10" stroke-linejoin="miter" fill="none" stroke="#000000" d="M-2086 4675.666-2083 4667.666H-2089ZM-2086 4675.666"/>
<path transform="matrix(1,0,0,-1,0,799)" d="M224.795 793.0595C231.3823 786.4723 231.3823 775.7923 224.795 769.205 218.2077 762.6177 207.5277 762.6177 200.9405 769.205 194.3532 775.7923 194.3532 786.4723 200.9405 793.0595 207.5277 799.6468 218.2077 799.6468 224.795 793.0595"/>
<path transform="matrix(1,0,0,1,2242,-4508)" stroke-width="1" stroke-linecap="round" stroke-linejoin="round" fill="none" stroke="#000000" d="M-2017.205 4513.94C-2010.618 4520.528-2010.618 4531.208-2017.205 4537.795-2023.792 4544.382-2034.472 4544.382-2041.06 4537.795-2047.647 4531.208-2047.647 4520.528-2041.06 4513.94-2034.472 4507.353-2023.792 4507.353-2017.205 4513.94"/>
<text fill="#ffffff" xml:space="preserve" transform="matrix(1 0 0 1 2242 -4508)" font-size="23" font-family="Optima"><tspan y="4533.08" x="-2035.526">1</tspan></text>
<path transform="matrix(1,0,0,-1,0,799)" d="M30.05955 627.795C36.64683 621.2077 36.64683 610.5277 30.05955 603.9405 23.4723 597.3532 12.79228 597.3532 6.205029 603.9405-.3822505 610.5277-.3822505 621.2077 6.205029 627.795 12.79228 634.3823 23.4723 634.3823 30.05955 627.795"/>
<path transform="matrix(1,0,0,1,2242,-4508)" stroke-width="1" stroke-linecap="round" stroke-linejoin="round" fill="none" stroke="#000000" d="M-2211.94 4679.205C-2205.353 4685.792-2205.353 4696.472-2211.94 4703.06-2218.528 4709.647-2229.208 4709.647-2235.795 4703.06-2242.382 4696.472-2242.382 4685.792-2235.795 4679.205-2229.208 4672.618-2218.528 4672.618-2211.94 4679.205"/>
<text fill="#ffffff" xml:space="preserve" transform="matrix(1 0 0 1 2242 -4508)" font-size="23" font-family="Optima"><tspan y="4698.345" x="-2230.262">2</tspan></text>
<path transform="matrix(1,0,0,-1,0,799)" d="M30.05955 442.0595C36.64683 435.4723 36.64683 424.7923 30.05955 418.205 23.4723 411.6177 12.79228 411.6177 6.205029 418.205-.3822505 424.7923-.3822505 435.4723 6.205029 442.0595 12.79228 448.6468 23.4723 448.6468 30.05955 442.0595"/>
<path transform="matrix(1,0,0,1,2242,-4508)" stroke-width="1" stroke-linecap="round" stroke-linejoin="round" fill="none" stroke="#000000" d="M-2211.94 4864.94C-2205.353 4871.528-2205.353 4882.208-2211.94 4888.795-2218.528 4895.382-2229.208 4895.382-2235.795 4888.795-2242.382 4882.208-2242.382 4871.528-2235.795 4864.94-2229.208 4858.353-2218.528 4858.353-2211.94 4864.94"/>
<text fill="#ffffff" xml:space="preserve" transform="matrix(1 0 0 1 2242 -4508)" font-size="23" font-family="Optima"><tspan y="4884.08" x="-2230.262">3</tspan></text>
<path transform="matrix(1,0,0,-1,0,799)" d="M30.05955 255.795C36.64683 249.2077 36.64683 238.5277 30.05955 231.9405 23.4723 225.3532 12.79228 225.3532 6.205029 231.9405-.3822505 238.5277-.3822505 249.2077 6.205029 255.795 12.79228 262.3823 23.4723 262.3823 30.05955 255.795"/>
<path transform="matrix(1,0,0,1,2242,-4508)" stroke-width="1" stroke-linecap="round" stroke-linejoin="round" fill="none" stroke="#000000" d="M-2211.94 5051.205C-2205.353 5057.792-2205.353 5068.472-2211.94 5075.06-2218.528 5081.647-2229.208 5081.647-2235.795 5075.06-2242.382 5068.472-2242.382 5057.792-2235.795 5051.205-2229.208 5044.618-2218.528 5044.618-2211.94 5051.205"/>
<text fill="#ffffff" xml:space="preserve" transform="matrix(1 0 0 1 2242 -4508)" font-size="23" font-family="Optima"><tspan y="5070.345" x="-2230.262">4</tspan></text>
<path transform="matrix(1,0,0,-1,0,799)" d="M228.795 76.79497C235.3823 70.20772 235.3823 59.5277 228.795 52.94045 222.2077 46.35317 211.5277 46.35317 204.9405 52.94045 198.3532 59.5277 198.3532 70.20772 204.9405 76.79497 211.5277 83.38225 222.2077 83.38225 228.795 76.79497"/>
<path transform="matrix(1,0,0,1,2242,-4508)" stroke-width="1" stroke-linecap="round" stroke-linejoin="round" fill="none" stroke="#000000" d="M-2013.205 5230.205C-2006.618 5236.792-2006.618 5247.472-2013.205 5254.06-2019.792 5260.647-2030.472 5260.647-2037.06 5254.06-2043.647 5247.472-2043.647 5236.792-2037.06 5230.205-2030.472 5223.618-2019.792 5223.618-2013.205 5230.205"/>
<text fill="#ffffff" xml:space="preserve" transform="matrix(1 0 0 1 2242 -4508)" font-size="23" font-family="Optima"><tspan y="5249.345" x="-2031.526">5</tspan></text>
<path transform="matrix(1,0,0,-1,0,799)" d="M410.0595 255.795C416.6468 249.2077 416.6468 238.5277 410.0595 231.9405 403.4723 225.3532 392.7923 225.3532 386.205 231.9405 379.6177 238.5277 379.6177 249.2077 386.205 255.795 392.7923 262.3823 403.4723 262.3823 410.0595 255.795"/>
<path transform="matrix(1,0,0,1,2242,-4508)" stroke-width="1" stroke-linecap="round" stroke-linejoin="round" fill="none" stroke="#000000" d="M-1831.94 5051.205C-1825.353 5057.792-1825.353 5068.472-1831.94 5075.06-1838.528 5081.647-1849.208 5081.647-1855.795 5075.06-1862.382 5068.472-1862.382 5057.792-1855.795 5051.205-1849.208 5044.618-1838.528 5044.618-1831.94 5051.205"/>
<text fill="#ffffff" xml:space="preserve" transform="matrix(1 0 0 1 2242 -4508)" font-size="23" font-family="Optima"><tspan y="5070.345" x="-1850.262">6</tspan></text>
<path transform="matrix(1,0,0,-1,0,799)" d="M410.0595 442.0595C416.6468 435.4723 416.6468 424.7923 410.0595 418.205 403.4723 411.6177 392.7923 411.6177 386.205 418.205 379.6177 424.7923 379.6177 435.4723 386.205 442.0595 392.7923 448.6468 403.4723 448.6468 410.0595 442.0595"/>
<path transform="matrix(1,0,0,1,2242,-4508)" stroke-width="1" stroke-linecap="round" stroke-linejoin="round" fill="none" stroke="#000000" d="M-1831.94 4864.94C-1825.353 4871.528-1825.353 4882.208-1831.94 4888.795-1838.528 4895.382-1849.208 4895.382-1855.795 4888.795-1862.382 4882.208-1862.382 4871.528-1855.795 4864.94-1849.208 4858.353-1838.528 4858.353-1831.94 4864.94"/>
<text fill="#ffffff" xml:space="preserve" transform="matrix(1 0 0 1 2242 -4508)" font-size="23" font-family="Optima"><tspan y="4884.08" x="-1850.262">7</tspan></text>
<path transform="matrix(1,0,0,-1,0,799)" d="M410.0595 627.795C416.6468 621.2077 416.6468 610.5277 410.0595 603.9405 403.4723 597.3532 392.7923 597.3532 386.205 603.9405 379.6177 610.5277 379.6177 621.2077 386.205 627.795 392.7923 634.3823 403.4723 634.3823 410.0595 627.795"/>
<path transform="matrix(1,0,0,1,2242,-4508)" stroke-width="1" stroke-linecap="round" stroke-linejoin="round" fill="none" stroke="#000000" d="M-1831.94 4679.205C-1825.353 4685.792-1825.353 4696.472-1831.94 4703.06-1838.528 4709.647-1849.208 4709.647-1855.795 4703.06-1862.382 4696.472-1862.382 4685.792-1855.795 4679.205-1849.208 4672.618-1838.528 4672.618-1831.94 4679.205"/>
<text fill="#ffffff" xml:space="preserve" transform="matrix(1 0 0 1 2242 -4508)" font-size="23" font-family="Optima"><tspan y="4698.345" x="-1856.656 -1843.868">10</tspan></text>
<path transform="matrix(1,0,0,-1,0,799)" d="M747.795 343.0595C754.3823 336.4723 754.3823 325.7923 747.795 319.205 741.2077 312.6177 730.5277 312.6177 723.9405 319.205 717.3532 325.7923 717.3532 336.4723 723.9405 343.0595 730.5277 349.6468 741.2077 349.6468 747.795 343.0595"/>
<path transform="matrix(1,0,0,1,2242,-4508)" stroke-width="1" stroke-linecap="round" stroke-linejoin="round" fill="none" stroke="#000000" d="M-1494.205 4963.94C-1487.618 4970.528-1487.618 4981.208-1494.205 4987.795-1500.792 4994.382-1511.472 4994.382-1518.06 4987.795-1524.647 4981.208-1524.647 4970.528-1518.06 4963.94-1511.472 4957.353-1500.792 4957.353-1494.205 4963.94"/>
<text fill="#ffffff" xml:space="preserve" transform="matrix(1 0 0 1 2242 -4508)" font-size="23" font-family="Optima"><tspan y="4983.08" x="-1512.526">8</tspan></text>
<path transform="matrix(1,0,0,-1,0,799)" d="M747.795 542.0595C754.3823 535.4723 754.3823 524.7923 747.795 518.205 741.2077 511.6177 730.5277 511.6177 723.9405 518.205 717.3532 524.7923 717.3532 535.4723 723.9405 542.0595 730.5277 548.6468 741.2077 548.6468 747.795 542.0595"/>
<path transform="matrix(1,0,0,1,2242,-4508)" stroke-width="1" stroke-linecap="round" stroke-linejoin="round" fill="none" stroke="#000000" d="M-1494.205 4764.94C-1487.618 4771.528-1487.618 4782.208-1494.205 4788.795-1500.792 4795.382-1511.472 4795.382-1518.06 4788.795-1524.647 4782.208-1524.647 4771.528-1518.06 4764.94-1511.472 4758.353-1500.792 4758.353-1494.205 4764.94"/>
<text fill="#ffffff" xml:space="preserve" transform="matrix(1 0 0 1 2242 -4508)" font-size="23" font-family="Optima"><tspan y="4784.08" x="-1512.526">9</tspan></text>
</g>
</svg>
